<?xml version="1.0" standalone="no"?>
<!DOCTYPE svg PUBLIC "-//W3C//DTD SVG 20010904//EN"
 "http://www.w3.org/TR/2001/REC-SVG-20010904/DTD/svg10.dtd">
<svg version="1.0" xmlns="http://www.w3.org/2000/svg"
 width="174.000000pt" height="174.000000pt" viewBox="0 0 174.000000 174.000000"
 preserveAspectRatio="xMidYMid meet">

<g transform="translate(0.000000,174.000000) scale(0.100000,-0.100000)"
fill="#000000" stroke="none">
<path d="M472 1564 c-302 -151 -316 -162 -345 -267 -26 -97 -127 -552 -127
-572 1 -26 32 -96 58 -126 11 -13 43 -53 71 -89 69 -87 128 -160 176 -219 57
-70 112 -123 150 -146 l44 -25 323 0 323 0 42 28 c24 16 81 77 128 138 47 60
99 125 114 144 127 156 173 220 182 255 11 40 0 119 -46 330 -8 33 -20 92 -28
130 -8 39 -21 97 -28 130 -16 78 -42 128 -76 153 -16 11 -144 76 -286 146
l-258 126 -72 0 -72 -1 -273 -135z m567 -220 c119 -58 217 -107 219 -108 2 -3
27 -116 69 -316 14 -69 28 -135 30 -147 4 -19 -34 -83 -67 -113 -3 -3 -21 -25
-40 -50 -19 -25 -37 -47 -40 -50 -3 -3 -28 -34 -55 -70 -27 -36 -61 -77 -74
-92 l-24 -28 -243 0 -244 0 -97 118 c-224 272 -215 258 -203 302 5 19 28 118
50 220 23 102 44 193 47 203 3 12 83 57 221 127 120 60 221 109 226 109 5 1
107 -47 225 -105z"/>
<path d="M680 1113 l-115 -56 121 -59 122 -59 123 59 123 58 -108 52 c-59 29
-117 54 -129 56 -13 3 -68 -17 -137 -51z"/>
<path d="M550 893 l0 -154 75 -34 c42 -20 98 -46 125 -59 l50 -24 0 154 c0
151 -1 155 -22 163 -13 5 -69 31 -125 59 l-103 49 0 -154z"/>
<path d="M1030 1029 c-8 -5 -59 -30 -112 -55 l-98 -46 0 -149 c0 -175 -16
-164 141 -91 l99 47 0 153 c0 83 -3 152 -7 151 -5 0 -15 -4 -23 -10z"/>
</g>
</svg>
